<?xml version="1.0" encoding="utf-8" standalone="no"?>
<!DOCTYPE svg PUBLIC "-//W3C//DTD SVG 1.1//EN"
  "http://www.w3.org/Graphics/SVG/1.1/DTD/svg11.dtd">
<svg xmlns:xlink="http://www.w3.org/1999/xlink" width="460.8pt" height="345.6pt" viewBox="0 0 460.8 345.6" xmlns="http://www.w3.org/2000/svg" version="1.1">
 <metadata>
  <rdf:RDF xmlns:dc="http://purl.org/dc/elements/1.1/" xmlns:cc="http://creativecommons.org/ns#" xmlns:rdf="http://www.w3.org/1999/02/22-rdf-syntax-ns#">
   <cc:Work>
    <dc:type rdf:resource="http://purl.org/dc/dcmitype/StillImage"/>
    <dc:date>2024-05-31T11:27:03.107077</dc:date>
    <dc:format>image/svg+xml</dc:format>
    <dc:creator>
     <cc:Agent>
      <dc:title>Matplotlib v3.7.2, https://matplotlib.org/</dc:title>
     </cc:Agent>
    </dc:creator>
   </cc:Work>
  </rdf:RDF>
 </metadata>
 <defs>
  <style type="text/css">*{stroke-linejoin: round; stroke-linecap: butt}</style>
 </defs>
 <g id="figure_1">
  <g id="patch_1">
   <path d="M 0 345.6 
L 460.8 345.6 
L 460.8 0 
L 0 0 
z
" style="fill: #ffffff"/>
  </g>
  <g id="axes_1">
   <g id="patch_2">
    <path d="M 57.6 307.584 
L 414.72 307.584 
L 414.72 41.472 
L 57.6 41.472 
z
" style="fill: #ffffff"/>
   </g>
   <g id="matplotlib.axis_1">
    <g id="xtick_1">
     <g id="line2d_1">
      <defs>
       <path id="mf2385b2324" d="M 0 0 
L 0 3.5 
" style="stroke: #000000; stroke-width: 0.8"/>
      </defs>
      <g>
       <use xlink:href="#mf2385b2324" x="69.504" y="307.584" style="stroke: #000000; stroke-width: 0.8"/>
      </g>
     </g>
     <g id="text_1">
      <!-- 1 -->
      <g transform="translate(66.32275 322.182437) scale(0.1 -0.1)">
       <defs>
        <path id="DejaVuSans-31" d="M 794 531 
L 1825 531 
L 1825 4091 
L 703 3866 
L 703 4441 
L 1819 4666 
L 2450 4666 
L 2450 531 
L 3481 531 
L 3481 0 
L 794 0 
L 794 531 
z
" transform="scale(0.015625)"/>
       </defs>
       <use xlink:href="#DejaVuSans-31"/>
      </g>
     </g>
    </g>
    <g id="xtick_2">
     <g id="line2d_2">
      <g>
       <use xlink:href="#mf2385b2324" x="93.312" y="307.584" style="stroke: #000000; stroke-width: 0.8"/>
      </g>
     </g>
     <g id="text_2">
      <!-- 2 -->
      <g transform="translate(90.13075 322.182437) scale(0.1 -0.1)">
       <defs>
        <path id="DejaVuSans-32" d="M 1228 531 
L 3431 531 
L 3431 0 
L 469 0 
L 469 531 
Q 828 903 1448 1529 
Q 2069 2156 2228 2338 
Q 2531 2678 2651 2914 
Q 2772 3150 2772 3378 
Q 2772 3750 2511 3984 
Q 2250 4219 1831 4219 
Q 1534 4219 1204 4116 
Q 875 4013 500 3803 
L 500 4441 
Q 881 4594 1212 4672 
Q 1544 4750 1819 4750 
Q 2544 4750 2975 4387 
Q 3406 4025 3406 3419 
Q 3406 3131 3298 2873 
Q 3191 2616 2906 2266 
Q 2828 2175 2409 1742 
Q 1991 1309 1228 531 
z
" transform="scale(0.015625)"/>
       </defs>
       <use xlink:href="#DejaVuSans-32"/>
      </g>
     </g>
    </g>
    <g id="xtick_3">
     <g id="line2d_3">
      <g>
       <use xlink:href="#mf2385b2324" x="117.12" y="307.584" style="stroke: #000000; stroke-width: 0.8"/>
      </g>
     </g>
     <g id="text_3">
      <!-- 3 -->
      <g transform="translate(113.93875 322.182437) scale(0.1 -0.1)">
       <defs>
        <path id="DejaVuSans-33" d="M 2597 2516 
Q 3050 2419 3304 2112 
Q 3559 1806 3559 1356 
Q 3559 666 3084 287 
Q 2609 -91 1734 -91 
Q 1441 -91 1130 -33 
Q 819 25 488 141 
L 488 750 
Q 750 597 1062 519 
Q 1375 441 1716 441 
Q 2309 441 2620 675 
Q 2931 909 2931 1356 
Q 2931 1769 2642 2001 
Q 2353 2234 1838 2234 
L 1294 2234 
L 1294 2753 
L 1863 2753 
Q 2328 2753 2575 2939 
Q 2822 3125 2822 3475 
Q 2822 3834 2567 4026 
Q 2313 4219 1838 4219 
Q 1578 4219 1281 4162 
Q 984 4106 628 3988 
L 628 4550 
Q 988 4650 1302 4700 
Q 1616 4750 1894 4750 
Q 2613 4750 3031 4423 
Q 3450 4097 3450 3541 
Q 3450 3153 3228 2886 
Q 3006 2619 2597 2516 
z
" transform="scale(0.015625)"/>
       </defs>
       <use xlink:href="#DejaVuSans-33"/>
      </g>
     </g>
    </g>
    <g id="xtick_4">
     <g id="line2d_4">
      <g>
       <use xlink:href="#mf2385b2324" x="140.928" y="307.584" style="stroke: #000000; stroke-width: 0.8"/>
      </g>
     </g>
     <g id="text_4">
      <!-- 4 -->
      <g transform="translate(137.74675 322.182437) scale(0.1 -0.1)">
       <defs>
        <path id="DejaVuSans-34" d="M 2419 4116 
L 825 1625 
L 2419 1625 
L 2419 4116 
z
M 2253 4666 
L 3047 4666 
L 3047 1625 
L 3713 1625 
L 3713 1100 
L 3047 1100 
L 3047 0 
L 2419 0 
L 2419 1100 
L 313 1100 
L 313 1709 
L 2253 4666 
z
" transform="scale(0.015625)"/>
       </defs>
       <use xlink:href="#DejaVuSans-34"/>
      </g>
     </g>
    </g>
    <g id="xtick_5">
     <g id="line2d_5">
      <g>
       <use xlink:href="#mf2385b2324" x="164.736" y="307.584" style="stroke: #000000; stroke-width: 0.8"/>
      </g>
     </g>
     <g id="text_5">
      <!-- 5 -->
      <g transform="translate(161.55475 322.182437) scale(0.1 -0.1)">
       <defs>
        <path id="DejaVuSans-35" d="M 691 4666 
L 3169 4666 
L 3169 4134 
L 1269 4134 
L 1269 2991 
Q 1406 3038 1543 3061 
Q 1681 3084 1819 3084 
Q 2600 3084 3056 2656 
Q 3513 2228 3513 1497 
Q 3513 744 3044 326 
Q 2575 -91 1722 -91 
Q 1428 -91 1123 -41 
Q 819 9 494 109 
L 494 744 
Q 775 591 1075 516 
Q 1375 441 1709 441 
Q 2250 441 2565 725 
Q 2881 1009 2881 1497 
Q 2881 1984 2565 2268 
Q 2250 2553 1709 2553 
Q 1456 2553 1204 2497 
Q 953 2441 691 2322 
L 691 4666 
z
" transform="scale(0.015625)"/>
       </defs>
       <use xlink:href="#DejaVuSans-35"/>
      </g>
     </g>
    </g>
    <g id="xtick_6">
     <g id="line2d_6">
      <g>
       <use xlink:href="#mf2385b2324" x="188.544" y="307.584" style="stroke: #000000; stroke-width: 0.8"/>
      </g>
     </g>
     <g id="text_6">
      <!-- 6 -->
      <g transform="translate(185.36275 322.182437) scale(0.1 -0.1)">
       <defs>
        <path id="DejaVuSans-36" d="M 2113 2584 
Q 1688 2584 1439 2293 
Q 1191 2003 1191 1497 
Q 1191 994 1439 701 
Q 1688 409 2113 409 
Q 2538 409 2786 701 
Q 3034 994 3034 1497 
Q 3034 2003 2786 2293 
Q 2538 2584 2113 2584 
z
M 3366 4563 
L 3366 3988 
Q 3128 4100 2886 4159 
Q 2644 4219 2406 4219 
Q 1781 4219 1451 3797 
Q 1122 3375 1075 2522 
Q 1259 2794 1537 2939 
Q 1816 3084 2150 3084 
Q 2853 3084 3261 2657 
Q 3669 2231 3669 1497 
Q 3669 778 3244 343 
Q 2819 -91 2113 -91 
Q 1303 -91 875 529 
Q 447 1150 447 2328 
Q 447 3434 972 4092 
Q 1497 4750 2381 4750 
Q 2619 4750 2861 4703 
Q 3103 4656 3366 4563 
z
" transform="scale(0.015625)"/>
       </defs>
       <use xlink:href="#DejaVuSans-36"/>
      </g>
     </g>
    </g>
    <g id="xtick_7">
     <g id="line2d_7">
      <g>
       <use xlink:href="#mf2385b2324" x="212.352" y="307.584" style="stroke: #000000; stroke-width: 0.8"/>
      </g>
     </g>
     <g id="text_7">
      <!-- 7 -->
      <g transform="translate(209.17075 322.182437) scale(0.1 -0.1)">
       <defs>
        <path id="DejaVuSans-37" d="M 525 4666 
L 3525 4666 
L 3525 4397 
L 1831 0 
L 1172 0 
L 2766 4134 
L 525 4134 
L 525 4666 
z
" transform="scale(0.015625)"/>
       </defs>
       <use xlink:href="#DejaVuSans-37"/>
      </g>
     </g>
    </g>
    <g id="xtick_8">
     <g id="line2d_8">
      <g>
       <use xlink:href="#mf2385b2324" x="236.16" y="307.584" style="stroke: #000000; stroke-width: 0.8"/>
      </g>
     </g>
     <g id="text_8">
      <!-- 8 -->
      <g transform="translate(232.97875 322.182437) scale(0.1 -0.1)">
       <defs>
        <path id="DejaVuSans-38" d="M 2034 2216 
Q 1584 2216 1326 1975 
Q 1069 1734 1069 1313 
Q 1069 891 1326 650 
Q 1584 409 2034 409 
Q 2484 409 2743 651 
Q 3003 894 3003 1313 
Q 3003 1734 2745 1975 
Q 2488 2216 2034 2216 
z
M 1403 2484 
Q 997 2584 770 2862 
Q 544 3141 544 3541 
Q 544 4100 942 4425 
Q 1341 4750 2034 4750 
Q 2731 4750 3128 4425 
Q 3525 4100 3525 3541 
Q 3525 3141 3298 2862 
Q 3072 2584 2669 2484 
Q 3125 2378 3379 2068 
Q 3634 1759 3634 1313 
Q 3634 634 3220 271 
Q 2806 -91 2034 -91 
Q 1263 -91 848 271 
Q 434 634 434 1313 
Q 434 1759 690 2068 
Q 947 2378 1403 2484 
z
M 1172 3481 
Q 1172 3119 1398 2916 
Q 1625 2713 2034 2713 
Q 2441 2713 2670 2916 
Q 2900 3119 2900 3481 
Q 2900 3844 2670 4047 
Q 2441 4250 2034 4250 
Q 1625 4250 1398 4047 
Q 1172 3844 1172 3481 
z
" transform="scale(0.015625)"/>
       </defs>
       <use xlink:href="#DejaVuSans-38"/>
      </g>
     </g>
    </g>
    <g id="xtick_9">
     <g id="line2d_9">
      <g>
       <use xlink:href="#mf2385b2324" x="259.968" y="307.584" style="stroke: #000000; stroke-width: 0.8"/>
      </g>
     </g>
     <g id="text_9">
      <!-- 9 -->
      <g transform="translate(256.78675 322.182437) scale(0.1 -0.1)">
       <defs>
        <path id="DejaVuSans-39" d="M 703 97 
L 703 672 
Q 941 559 1184 500 
Q 1428 441 1663 441 
Q 2288 441 2617 861 
Q 2947 1281 2994 2138 
Q 2813 1869 2534 1725 
Q 2256 1581 1919 1581 
Q 1219 1581 811 2004 
Q 403 2428 403 3163 
Q 403 3881 828 4315 
Q 1253 4750 1959 4750 
Q 2769 4750 3195 4129 
Q 3622 3509 3622 2328 
Q 3622 1225 3098 567 
Q 2575 -91 1691 -91 
Q 1453 -91 1209 -44 
Q 966 3 703 97 
z
M 1959 2075 
Q 2384 2075 2632 2365 
Q 2881 2656 2881 3163 
Q 2881 3666 2632 3958 
Q 2384 4250 1959 4250 
Q 1534 4250 1286 3958 
Q 1038 3666 1038 3163 
Q 1038 2656 1286 2365 
Q 1534 2075 1959 2075 
z
" transform="scale(0.015625)"/>
       </defs>
       <use xlink:href="#DejaVuSans-39"/>
      </g>
     </g>
    </g>
    <g id="xtick_10">
     <g id="line2d_10">
      <g>
       <use xlink:href="#mf2385b2324" x="283.776" y="307.584" style="stroke: #000000; stroke-width: 0.8"/>
      </g>
     </g>
     <g id="text_10">
      <!-- 10 -->
      <g transform="translate(277.4135 322.182437) scale(0.1 -0.1)">
       <defs>
        <path id="DejaVuSans-30" d="M 2034 4250 
Q 1547 4250 1301 3770 
Q 1056 3291 1056 2328 
Q 1056 1369 1301 889 
Q 1547 409 2034 409 
Q 2525 409 2770 889 
Q 3016 1369 3016 2328 
Q 3016 3291 2770 3770 
Q 2525 4250 2034 4250 
z
M 2034 4750 
Q 2819 4750 3233 4129 
Q 3647 3509 3647 2328 
Q 3647 1150 3233 529 
Q 2819 -91 2034 -91 
Q 1250 -91 836 529 
Q 422 1150 422 2328 
Q 422 3509 836 4129 
Q 1250 4750 2034 4750 
z
" transform="scale(0.015625)"/>
       </defs>
       <use xlink:href="#DejaVuSans-31"/>
       <use xlink:href="#DejaVuSans-30" x="63.623047"/>
      </g>
     </g>
    </g>
    <g id="xtick_11">
     <g id="line2d_11">
      <g>
       <use xlink:href="#mf2385b2324" x="307.584" y="307.584" style="stroke: #000000; stroke-width: 0.8"/>
      </g>
     </g>
     <g id="text_11">
      <!-- 11 -->
      <g transform="translate(301.2215 322.182437) scale(0.1 -0.1)">
       <use xlink:href="#DejaVuSans-31"/>
       <use xlink:href="#DejaVuSans-31" x="63.623047"/>
      </g>
     </g>
    </g>
    <g id="xtick_12">
     <g id="line2d_12">
      <g>
       <use xlink:href="#mf2385b2324" x="331.392" y="307.584" style="stroke: #000000; stroke-width: 0.8"/>
      </g>
     </g>
     <g id="text_12">
      <!-- 12 -->
      <g transform="translate(325.0295 322.182437) scale(0.1 -0.1)">
       <use xlink:href="#DejaVuSans-31"/>
       <use xlink:href="#DejaVuSans-32" x="63.623047"/>
      </g>
     </g>
    </g>
    <g id="xtick_13">
     <g id="line2d_13">
      <g>
       <use xlink:href="#mf2385b2324" x="355.2" y="307.584" style="stroke: #000000; stroke-width: 0.8"/>
      </g>
     </g>
     <g id="text_13">
      <!-- 13 -->
      <g transform="translate(348.8375 322.182437) scale(0.1 -0.1)">
       <use xlink:href="#DejaVuSans-31"/>
       <use xlink:href="#DejaVuSans-33" x="63.623047"/>
      </g>
     </g>
    </g>
    <g id="xtick_14">
     <g id="line2d_14">
      <g>
       <use xlink:href="#mf2385b2324" x="379.008" y="307.584" style="stroke: #000000; stroke-width: 0.8"/>
      </g>
     </g>
     <g id="text_14">
      <!-- 14 -->
      <g transform="translate(372.6455 322.182437) scale(0.1 -0.1)">
       <use xlink:href="#DejaVuSans-31"/>
       <use xlink:href="#DejaVuSans-34" x="63.623047"/>
      </g>
     </g>
    </g>
    <g id="xtick_15">
     <g id="line2d_15">
      <g>
       <use xlink:href="#mf2385b2324" x="402.816" y="307.584" style="stroke: #000000; stroke-width: 0.8"/>
      </g>
     </g>
     <g id="text_15">
      <!-- 15 -->
      <g transform="translate(396.4535 322.182437) scale(0.1 -0.1)">
       <use xlink:href="#DejaVuSans-31"/>
       <use xlink:href="#DejaVuSans-35" x="63.623047"/>
      </g>
     </g>
    </g>
    <g id="text_16">
     <!-- Cluster -->
     <g transform="translate(218.413906 335.860562) scale(0.1 -0.1)">
      <defs>
       <path id="DejaVuSans-43" d="M 4122 4306 
L 4122 3641 
Q 3803 3938 3442 4084 
Q 3081 4231 2675 4231 
Q 1875 4231 1450 3742 
Q 1025 3253 1025 2328 
Q 1025 1406 1450 917 
Q 1875 428 2675 428 
Q 3081 428 3442 575 
Q 3803 722 4122 1019 
L 4122 359 
Q 3791 134 3420 21 
Q 3050 -91 2638 -91 
Q 1578 -91 968 557 
Q 359 1206 359 2328 
Q 359 3453 968 4101 
Q 1578 4750 2638 4750 
Q 3056 4750 3426 4639 
Q 3797 4528 4122 4306 
z
" transform="scale(0.015625)"/>
       <path id="DejaVuSans-6c" d="M 603 4863 
L 1178 4863 
L 1178 0 
L 603 0 
L 603 4863 
z
" transform="scale(0.015625)"/>
       <path id="DejaVuSans-75" d="M 544 1381 
L 544 3500 
L 1119 3500 
L 1119 1403 
Q 1119 906 1312 657 
Q 1506 409 1894 409 
Q 2359 409 2629 706 
Q 2900 1003 2900 1516 
L 2900 3500 
L 3475 3500 
L 3475 0 
L 2900 0 
L 2900 538 
Q 2691 219 2414 64 
Q 2138 -91 1772 -91 
Q 1169 -91 856 284 
Q 544 659 544 1381 
z
M 1991 3584 
L 1991 3584 
z
" transform="scale(0.015625)"/>
       <path id="DejaVuSans-73" d="M 2834 3397 
L 2834 2853 
Q 2591 2978 2328 3040 
Q 2066 3103 1784 3103 
Q 1356 3103 1142 2972 
Q 928 2841 928 2578 
Q 928 2378 1081 2264 
Q 1234 2150 1697 2047 
L 1894 2003 
Q 2506 1872 2764 1633 
Q 3022 1394 3022 966 
Q 3022 478 2636 193 
Q 2250 -91 1575 -91 
Q 1294 -91 989 -36 
Q 684 19 347 128 
L 347 722 
Q 666 556 975 473 
Q 1284 391 1588 391 
Q 1994 391 2212 530 
Q 2431 669 2431 922 
Q 2431 1156 2273 1281 
Q 2116 1406 1581 1522 
L 1381 1569 
Q 847 1681 609 1914 
Q 372 2147 372 2553 
Q 372 3047 722 3315 
Q 1072 3584 1716 3584 
Q 2034 3584 2315 3537 
Q 2597 3491 2834 3397 
z
" transform="scale(0.015625)"/>
       <path id="DejaVuSans-74" d="M 1172 4494 
L 1172 3500 
L 2356 3500 
L 2356 3053 
L 1172 3053 
L 1172 1153 
Q 1172 725 1289 603 
Q 1406 481 1766 481 
L 2356 481 
L 2356 0 
L 1766 0 
Q 1100 0 847 248 
Q 594 497 594 1153 
L 594 3053 
L 172 3053 
L 172 3500 
L 594 3500 
L 594 4494 
L 1172 4494 
z
" transform="scale(0.015625)"/>
       <path id="DejaVuSans-65" d="M 3597 1894 
L 3597 1613 
L 953 1613 
Q 991 1019 1311 708 
Q 1631 397 2203 397 
Q 2534 397 2845 478 
Q 3156 559 3463 722 
L 3463 178 
Q 3153 47 2828 -22 
Q 2503 -91 2169 -91 
Q 1331 -91 842 396 
Q 353 884 353 1716 
Q 353 2575 817 3079 
Q 1281 3584 2069 3584 
Q 2775 3584 3186 3129 
Q 3597 2675 3597 1894 
z
M 3022 2063 
Q 3016 2534 2758 2815 
Q 2500 3097 2075 3097 
Q 1594 3097 1305 2825 
Q 1016 2553 972 2059 
L 3022 2063 
z
" transform="scale(0.015625)"/>
       <path id="DejaVuSans-72" d="M 2631 2963 
Q 2534 3019 2420 3045 
Q 2306 3072 2169 3072 
Q 1681 3072 1420 2755 
Q 1159 2438 1159 1844 
L 1159 0 
L 581 0 
L 581 3500 
L 1159 3500 
L 1159 2956 
Q 1341 3275 1631 3429 
Q 1922 3584 2338 3584 
Q 2397 3584 2469 3576 
Q 2541 3569 2628 3553 
L 2631 2963 
z
" transform="scale(0.015625)"/>
      </defs>
      <use xlink:href="#DejaVuSans-43"/>
      <use xlink:href="#DejaVuSans-6c" x="69.824219"/>
      <use xlink:href="#DejaVuSans-75" x="97.607422"/>
      <use xlink:href="#DejaVuSans-73" x="160.986328"/>
      <use xlink:href="#DejaVuSans-74" x="213.085938"/>
      <use xlink:href="#DejaVuSans-65" x="252.294922"/>
      <use xlink:href="#DejaVuSans-72" x="313.818359"/>
     </g>
    </g>
   </g>
   <g id="matplotlib.axis_2">
    <g id="ytick_1">
     <g id="line2d_16">
      <defs>
       <path id="mcd0ea75ccf" d="M 0 0 
L -3.5 0 
" style="stroke: #000000; stroke-width: 0.8"/>
      </defs>
      <g>
       <use xlink:href="#mcd0ea75ccf" x="57.6" y="270.161841" style="stroke: #000000; stroke-width: 0.8"/>
      </g>
     </g>
     <g id="text_17">
      <!-- −0.1 -->
      <g transform="translate(26.317187 273.96106) scale(0.1 -0.1)">
       <defs>
        <path id="DejaVuSans-2212" d="M 678 2272 
L 4684 2272 
L 4684 1741 
L 678 1741 
L 678 2272 
z
" transform="scale(0.015625)"/>
        <path id="DejaVuSans-2e" d="M 684 794 
L 1344 794 
L 1344 0 
L 684 0 
L 684 794 
z
" transform="scale(0.015625)"/>
       </defs>
       <use xlink:href="#DejaVuSans-2212"/>
       <use xlink:href="#DejaVuSans-30" x="83.789062"/>
       <use xlink:href="#DejaVuSans-2e" x="147.412109"/>
       <use xlink:href="#DejaVuSans-31" x="179.199219"/>
      </g>
     </g>
    </g>
    <g id="ytick_2">
     <g id="line2d_17">
      <g>
       <use xlink:href="#mcd0ea75ccf" x="57.6" y="229.460953" style="stroke: #000000; stroke-width: 0.8"/>
      </g>
     </g>
     <g id="text_18">
      <!-- 0.0 -->
      <g transform="translate(34.696875 233.260172) scale(0.1 -0.1)">
       <use xlink:href="#DejaVuSans-30"/>
       <use xlink:href="#DejaVuSans-2e" x="63.623047"/>
       <use xlink:href="#DejaVuSans-30" x="95.410156"/>
      </g>
     </g>
    </g>
    <g id="ytick_3">
     <g id="line2d_18">
      <g>
       <use xlink:href="#mcd0ea75ccf" x="57.6" y="188.760065" style="stroke: #000000; stroke-width: 0.8"/>
      </g>
     </g>
     <g id="text_19">
      <!-- 0.1 -->
      <g transform="translate(34.696875 192.559284) scale(0.1 -0.1)">
       <use xlink:href="#DejaVuSans-30"/>
       <use xlink:href="#DejaVuSans-2e" x="63.623047"/>
       <use xlink:href="#DejaVuSans-31" x="95.410156"/>
      </g>
     </g>
    </g>
    <g id="ytick_4">
     <g id="line2d_19">
      <g>
       <use xlink:href="#mcd0ea75ccf" x="57.6" y="148.059177" style="stroke: #000000; stroke-width: 0.8"/>
      </g>
     </g>
     <g id="text_20">
      <!-- 0.2 -->
      <g transform="translate(34.696875 151.858396) scale(0.1 -0.1)">
       <use xlink:href="#DejaVuSans-30"/>
       <use xlink:href="#DejaVuSans-2e" x="63.623047"/>
       <use xlink:href="#DejaVuSans-32" x="95.410156"/>
      </g>
     </g>
    </g>
    <g id="ytick_5">
     <g id="line2d_20">
      <g>
       <use xlink:href="#mcd0ea75ccf" x="57.6" y="107.358289" style="stroke: #000000; stroke-width: 0.8"/>
      </g>
     </g>
     <g id="text_21">
      <!-- 0.3 -->
      <g transform="translate(34.696875 111.157508) scale(0.1 -0.1)">
       <use xlink:href="#DejaVuSans-30"/>
       <use xlink:href="#DejaVuSans-2e" x="63.623047"/>
       <use xlink:href="#DejaVuSans-33" x="95.410156"/>
      </g>
     </g>
    </g>
    <g id="ytick_6">
     <g id="line2d_21">
      <g>
       <use xlink:href="#mcd0ea75ccf" x="57.6" y="66.657401" style="stroke: #000000; stroke-width: 0.8"/>
      </g>
     </g>
     <g id="text_22">
      <!-- 0.4 -->
      <g transform="translate(34.696875 70.45662) scale(0.1 -0.1)">
       <use xlink:href="#DejaVuSans-30"/>
       <use xlink:href="#DejaVuSans-2e" x="63.623047"/>
       <use xlink:href="#DejaVuSans-34" x="95.410156"/>
      </g>
     </g>
    </g>
    <g id="text_23">
     <!-- Silhouette score -->
     <g transform="translate(20.2375 214.972531) rotate(-90) scale(0.1 -0.1)">
      <defs>
       <path id="DejaVuSans-53" d="M 3425 4513 
L 3425 3897 
Q 3066 4069 2747 4153 
Q 2428 4238 2131 4238 
Q 1616 4238 1336 4038 
Q 1056 3838 1056 3469 
Q 1056 3159 1242 3001 
Q 1428 2844 1947 2747 
L 2328 2669 
Q 3034 2534 3370 2195 
Q 3706 1856 3706 1288 
Q 3706 609 3251 259 
Q 2797 -91 1919 -91 
Q 1588 -91 1214 -16 
Q 841 59 441 206 
L 441 856 
Q 825 641 1194 531 
Q 1563 422 1919 422 
Q 2459 422 2753 634 
Q 3047 847 3047 1241 
Q 3047 1584 2836 1778 
Q 2625 1972 2144 2069 
L 1759 2144 
Q 1053 2284 737 2584 
Q 422 2884 422 3419 
Q 422 4038 858 4394 
Q 1294 4750 2059 4750 
Q 2388 4750 2728 4690 
Q 3069 4631 3425 4513 
z
" transform="scale(0.015625)"/>
       <path id="DejaVuSans-69" d="M 603 3500 
L 1178 3500 
L 1178 0 
L 603 0 
L 603 3500 
z
M 603 4863 
L 1178 4863 
L 1178 4134 
L 603 4134 
L 603 4863 
z
" transform="scale(0.015625)"/>
       <path id="DejaVuSans-68" d="M 3513 2113 
L 3513 0 
L 2938 0 
L 2938 2094 
Q 2938 2591 2744 2837 
Q 2550 3084 2163 3084 
Q 1697 3084 1428 2787 
Q 1159 2491 1159 1978 
L 1159 0 
L 581 0 
L 581 4863 
L 1159 4863 
L 1159 2956 
Q 1366 3272 1645 3428 
Q 1925 3584 2291 3584 
Q 2894 3584 3203 3211 
Q 3513 2838 3513 2113 
z
" transform="scale(0.015625)"/>
       <path id="DejaVuSans-6f" d="M 1959 3097 
Q 1497 3097 1228 2736 
Q 959 2375 959 1747 
Q 959 1119 1226 758 
Q 1494 397 1959 397 
Q 2419 397 2687 759 
Q 2956 1122 2956 1747 
Q 2956 2369 2687 2733 
Q 2419 3097 1959 3097 
z
M 1959 3584 
Q 2709 3584 3137 3096 
Q 3566 2609 3566 1747 
Q 3566 888 3137 398 
Q 2709 -91 1959 -91 
Q 1206 -91 779 398 
Q 353 888 353 1747 
Q 353 2609 779 3096 
Q 1206 3584 1959 3584 
z
" transform="scale(0.015625)"/>
       <path id="DejaVuSans-20" transform="scale(0.015625)"/>
       <path id="DejaVuSans-63" d="M 3122 3366 
L 3122 2828 
Q 2878 2963 2633 3030 
Q 2388 3097 2138 3097 
Q 1578 3097 1268 2742 
Q 959 2388 959 1747 
Q 959 1106 1268 751 
Q 1578 397 2138 397 
Q 2388 397 2633 464 
Q 2878 531 3122 666 
L 3122 134 
Q 2881 22 2623 -34 
Q 2366 -91 2075 -91 
Q 1284 -91 818 406 
Q 353 903 353 1747 
Q 353 2603 823 3093 
Q 1294 3584 2113 3584 
Q 2378 3584 2631 3529 
Q 2884 3475 3122 3366 
z
" transform="scale(0.015625)"/>
      </defs>
      <use xlink:href="#DejaVuSans-53"/>
      <use xlink:href="#DejaVuSans-69" x="63.476562"/>
      <use xlink:href="#DejaVuSans-6c" x="91.259766"/>
      <use xlink:href="#DejaVuSans-68" x="119.042969"/>
      <use xlink:href="#DejaVuSans-6f" x="182.421875"/>
      <use xlink:href="#DejaVuSans-75" x="243.603516"/>
      <use xlink:href="#DejaVuSans-65" x="306.982422"/>
      <use xlink:href="#DejaVuSans-74" x="368.505859"/>
      <use xlink:href="#DejaVuSans-74" x="407.714844"/>
      <use xlink:href="#DejaVuSans-65" x="446.923828"/>
      <use xlink:href="#DejaVuSans-20" x="508.447266"/>
      <use xlink:href="#DejaVuSans-73" x="540.234375"/>
      <use xlink:href="#DejaVuSans-63" x="592.333984"/>
      <use xlink:href="#DejaVuSans-6f" x="647.314453"/>
      <use xlink:href="#DejaVuSans-72" x="708.496094"/>
      <use xlink:href="#DejaVuSans-65" x="747.359375"/>
     </g>
    </g>
   </g>
   <g id="patch_3">
    <path d="M 57.6 307.584 
L 57.6 41.472 
" style="fill: none; stroke: #000000; stroke-width: 0.8; stroke-linejoin: miter; stroke-linecap: square"/>
   </g>
   <g id="patch_4">
    <path d="M 414.72 307.584 
L 414.72 41.472 
" style="fill: none; stroke: #000000; stroke-width: 0.8; stroke-linejoin: miter; stroke-linecap: square"/>
   </g>
   <g id="patch_5">
    <path d="M 57.6 307.584 
L 414.72 307.584 
" style="fill: none; stroke: #000000; stroke-width: 0.8; stroke-linejoin: miter; stroke-linecap: square"/>
   </g>
   <g id="patch_6">
    <path d="M 57.6 41.472 
L 414.72 41.472 
" style="fill: none; stroke: #000000; stroke-width: 0.8; stroke-linejoin: miter; stroke-linecap: square"/>
   </g>
   <g id="PathCollection_1">
    <defs>
     <path id="m0d147d859b" d="M 0 2.5 
C 0.663008 2.5 1.29895 2.236584 1.767767 1.767767 
C 2.236584 1.29895 2.5 0.663008 2.5 0 
C 2.5 -0.663008 2.236584 -1.29895 1.767767 -1.767767 
C 1.29895 -2.236584 0.663008 -2.5 0 -2.5 
C -0.663008 -2.5 -1.29895 -2.236584 -1.767767 -1.767767 
C -2.236584 -1.29895 -2.5 -0.663008 -2.5 0 
C -2.5 0.663008 -2.236584 1.29895 -1.767767 1.767767 
C -1.29895 2.236584 -0.663008 2.5 0 2.5 
z
"/>
    </defs>
    <g clip-path="url(#pbcff58034e)">
     <use xlink:href="#m0d147d859b" x="70.891136" y="197.987115" style="fill: #1f77b4"/>
     <use xlink:href="#m0d147d859b" x="69.927906" y="174.94839" style="fill: #1f77b4"/>
     <use xlink:href="#m0d147d859b" x="71.658492" y="189.380004" style="fill: #1f77b4"/>
     <use xlink:href="#m0d147d859b" x="67.804164" y="243.632389" style="fill: #1f77b4"/>
     <use xlink:href="#m0d147d859b" x="70.674011" y="209.994728" style="fill: #1f77b4"/>
     <use xlink:href="#m0d147d859b" x="68.363678" y="200.771168" style="fill: #1f77b4"/>
     <use xlink:href="#m0d147d859b" x="70.867828" y="196.639681" style="fill: #1f77b4"/>
     <use xlink:href="#m0d147d859b" x="68.380754" y="211.00899" style="fill: #1f77b4"/>
     <use xlink:href="#m0d147d859b" x="68.583401" y="227.430416" style="fill: #1f77b4"/>
     <use xlink:href="#m0d147d859b" x="67.136698" y="168.721246" style="fill: #1f77b4"/>
     <use xlink:href="#m0d147d859b" x="70.422583" y="207.321127" style="fill: #1f77b4"/>
     <use xlink:href="#m0d147d859b" x="68.731749" y="205.296334" style="fill: #1f77b4"/>
     <use xlink:href="#m0d147d859b" x="67.722246" y="226.185963" style="fill: #1f77b4"/>
    </g>
   </g>
   <g id="PathCollection_2">
    <g clip-path="url(#pbcff58034e)">
     <use xlink:href="#m0d147d859b" x="94.520678" y="184.620776" style="fill: #1f77b4"/>
     <use xlink:href="#m0d147d859b" x="93.653457" y="201.729433" style="fill: #1f77b4"/>
     <use xlink:href="#m0d147d859b" x="92.928959" y="183.528335" style="fill: #1f77b4"/>
     <use xlink:href="#m0d147d859b" x="93.979932" y="213.241099" style="fill: #1f77b4"/>
     <use xlink:href="#m0d147d859b" x="92.682592" y="223.026993" style="fill: #1f77b4"/>
     <use xlink:href="#m0d147d859b" x="91.09077" y="204.878769" style="fill: #1f77b4"/>
     <use xlink:href="#m0d147d859b" x="92.396902" y="187.381423" style="fill: #1f77b4"/>
     <use xlink:href="#m0d147d859b" x="95.321342" y="237.687845" style="fill: #1f77b4"/>
     <use xlink:href="#m0d147d859b" x="94.721338" y="174.079564" style="fill: #1f77b4"/>
     <use xlink:href="#m0d147d859b" x="91.190952" y="223.386038" style="fill: #1f77b4"/>
     <use xlink:href="#m0d147d859b" x="91.725628" y="173.231569" style="fill: #1f77b4"/>
     <use xlink:href="#m0d147d859b" x="95.209705" y="174.713307" style="fill: #1f77b4"/>
     <use xlink:href="#m0d147d859b" x="92.04331" y="184.172127" style="fill: #1f77b4"/>
     <use xlink:href="#m0d147d859b" x="95.402914" y="196.115447" style="fill: #1f77b4"/>
     <use xlink:href="#m0d147d859b" x="93.012446" y="190.881722" style="fill: #1f77b4"/>
     <use xlink:href="#m0d147d859b" x="91.94438" y="245.494869" style="fill: #1f77b4"/>
     <use xlink:href="#m0d147d859b" x="94.476822" y="188.975434" style="fill: #1f77b4"/>
     <use xlink:href="#m0d147d859b" x="92.511589" y="155.324935" style="fill: #1f77b4"/>
     <use xlink:href="#m0d147d859b" x="93.641195" y="210.625426" style="fill: #1f77b4"/>
     <use xlink:href="#m0d147d859b" x="95.107326" y="242.275628" style="fill: #1f77b4"/>
     <use xlink:href="#m0d147d859b" x="94.823532" y="213.76615" style="fill: #1f77b4"/>
     <use xlink:href="#m0d147d859b" x="91.695327" y="220.665923" style="fill: #1f77b4"/>
    </g>
   </g>
   <g id="PathCollection_3">
    <g clip-path="url(#pbcff58034e)">
     <use xlink:href="#m0d147d859b" x="118.473908" y="161.798494" style="fill: #1f77b4"/>
     <use xlink:href="#m0d147d859b" x="117.720156" y="157.556571" style="fill: #1f77b4"/>
     <use xlink:href="#m0d147d859b" x="118.332314" y="121.739026" style="fill: #1f77b4"/>
     <use xlink:href="#m0d147d859b" x="117.392983" y="166.439512" style="fill: #1f77b4"/>
     <use xlink:href="#m0d147d859b" x="115.15938" y="203.146665" style="fill: #1f77b4"/>
     <use xlink:href="#m0d147d859b" x="118.249779" y="153.589595" style="fill: #1f77b4"/>
     <use xlink:href="#m0d147d859b" x="116.198622" y="120.123936" style="fill: #1f77b4"/>
     <use xlink:href="#m0d147d859b" x="114.775186" y="96.791963" style="fill: #1f77b4"/>
     <use xlink:href="#m0d147d859b" x="118.546131" y="108.494414" style="fill: #1f77b4"/>
     <use xlink:href="#m0d147d859b" x="119.350951" y="141.991153" style="fill: #1f77b4"/>
     <use xlink:href="#m0d147d859b" x="118.957966" y="166.895475" style="fill: #1f77b4"/>
     <use xlink:href="#m0d147d859b" x="116.451394" y="143.559324" style="fill: #1f77b4"/>
     <use xlink:href="#m0d147d859b" x="114.934064" y="125.697087" style="fill: #1f77b4"/>
    </g>
   </g>
   <g id="PathCollection_4">
    <g clip-path="url(#pbcff58034e)">
     <use xlink:href="#m0d147d859b" x="139.715311" y="86.538327" style="fill: #1f77b4"/>
     <use xlink:href="#m0d147d859b" x="143.166806" y="164.336342" style="fill: #1f77b4"/>
     <use xlink:href="#m0d147d859b" x="142.935403" y="152.616883" style="fill: #1f77b4"/>
     <use xlink:href="#m0d147d859b" x="141.336123" y="62.361101" style="fill: #1f77b4"/>
     <use xlink:href="#m0d147d859b" x="141.08902" y="139.282883" style="fill: #1f77b4"/>
     <use xlink:href="#m0d147d859b" x="140.774738" y="160.764055" style="fill: #1f77b4"/>
     <use xlink:href="#m0d147d859b" x="142.511951" y="54.67711" style="fill: #1f77b4"/>
     <use xlink:href="#m0d147d859b" x="138.910462" y="119.823073" style="fill: #1f77b4"/>
     <use xlink:href="#m0d147d859b" x="141.011125" y="126.119695" style="fill: #1f77b4"/>
     <use xlink:href="#m0d147d859b" x="140.054695" y="53.568" style="fill: #1f77b4"/>
     <use xlink:href="#m0d147d859b" x="142.220703" y="111.181091" style="fill: #1f77b4"/>
     <use xlink:href="#m0d147d859b" x="140.025743" y="54.983912" style="fill: #1f77b4"/>
     <use xlink:href="#m0d147d859b" x="141.039159" y="218.904217" style="fill: #1f77b4"/>
     <use xlink:href="#m0d147d859b" x="142.957505" y="58.161529" style="fill: #1f77b4"/>
     <use xlink:href="#m0d147d859b" x="139.283915" y="238.870055" style="fill: #1f77b4"/>
     <use xlink:href="#m0d147d859b" x="142.93282" y="58.333942" style="fill: #1f77b4"/>
     <use xlink:href="#m0d147d859b" x="142.062951" y="229.226185" style="fill: #1f77b4"/>
     <use xlink:href="#m0d147d859b" x="138.579924" y="82.973441" style="fill: #1f77b4"/>
     <use xlink:href="#m0d147d859b" x="140.38473" y="64.842434" style="fill: #1f77b4"/>
    </g>
   </g>
   <g id="PathCollection_5">
    <g clip-path="url(#pbcff58034e)">
     <use xlink:href="#m0d147d859b" x="166.588653" y="252.898738" style="fill: #1f77b4"/>
     <use xlink:href="#m0d147d859b" x="163.629027" y="223.961883" style="fill: #1f77b4"/>
     <use xlink:href="#m0d147d859b" x="163.715638" y="217.164877" style="fill: #1f77b4"/>
     <use xlink:href="#m0d147d859b" x="163.798574" y="228.643749" style="fill: #1f77b4"/>
     <use xlink:href="#m0d147d859b" x="166.242299" y="209.476589" style="fill: #1f77b4"/>
     <use xlink:href="#m0d147d859b" x="166.95037" y="201.554414" style="fill: #1f77b4"/>
     <use xlink:href="#m0d147d859b" x="164.117654" y="248.917087" style="fill: #1f77b4"/>
     <use xlink:href="#m0d147d859b" x="163.915574" y="213.556591" style="fill: #1f77b4"/>
     <use xlink:href="#m0d147d859b" x="163.330566" y="229.602401" style="fill: #1f77b4"/>
     <use xlink:href="#m0d147d859b" x="165.112329" y="216.907697" style="fill: #1f77b4"/>
     <use xlink:href="#m0d147d859b" x="163.368697" y="215.743878" style="fill: #1f77b4"/>
     <use xlink:href="#m0d147d859b" x="165.329164" y="230.518232" style="fill: #1f77b4"/>
     <use xlink:href="#m0d147d859b" x="163.667978" y="235.258795" style="fill: #1f77b4"/>
     <use xlink:href="#m0d147d859b" x="163.791074" y="259.042131" style="fill: #1f77b4"/>
     <use xlink:href="#m0d147d859b" x="163.234575" y="222.078008" style="fill: #1f77b4"/>
     <use xlink:href="#m0d147d859b" x="165.667547" y="236.063657" style="fill: #1f77b4"/>
     <use xlink:href="#m0d147d859b" x="163.38779" y="204.331575" style="fill: #1f77b4"/>
     <use xlink:href="#m0d147d859b" x="165.252068" y="259.111419" style="fill: #1f77b4"/>
     <use xlink:href="#m0d147d859b" x="164.092023" y="261.465575" style="fill: #1f77b4"/>
     <use xlink:href="#m0d147d859b" x="162.902532" y="226.375015" style="fill: #1f77b4"/>
     <use xlink:href="#m0d147d859b" x="163.986075" y="215.364903" style="fill: #1f77b4"/>
     <use xlink:href="#m0d147d859b" x="165.604172" y="240.781226" style="fill: #1f77b4"/>
     <use xlink:href="#m0d147d859b" x="163.968308" y="216.804269" style="fill: #1f77b4"/>
     <use xlink:href="#m0d147d859b" x="164.421462" y="221.093524" style="fill: #1f77b4"/>
     <use xlink:href="#m0d147d859b" x="164.898225" y="211.42446" style="fill: #1f77b4"/>
     <use xlink:href="#m0d147d859b" x="163.604242" y="233.828836" style="fill: #1f77b4"/>
     <use xlink:href="#m0d147d859b" x="163.977847" y="273.207944" style="fill: #1f77b4"/>
     <use xlink:href="#m0d147d859b" x="162.953479" y="262.482525" style="fill: #1f77b4"/>
     <use xlink:href="#m0d147d859b" x="164.932182" y="214.546106" style="fill: #1f77b4"/>
     <use xlink:href="#m0d147d859b" x="164.513481" y="222.413396" style="fill: #1f77b4"/>
    </g>
   </g>
   <g id="PathCollection_6">
    <g clip-path="url(#pbcff58034e)">
     <use xlink:href="#m0d147d859b" x="187.617973" y="148.928028" style="fill: #1f77b4"/>
     <use xlink:href="#m0d147d859b" x="187.772075" y="141.326715" style="fill: #1f77b4"/>
     <use xlink:href="#m0d147d859b" x="187.33117" y="199.584963" style="fill: #1f77b4"/>
     <use xlink:href="#m0d147d859b" x="190.190672" y="167.538449" style="fill: #1f77b4"/>
     <use xlink:href="#m0d147d859b" x="188.961358" y="216.341418" style="fill: #1f77b4"/>
     <use xlink:href="#m0d147d859b" x="188.588377" y="177.15604" style="fill: #1f77b4"/>
     <use xlink:href="#m0d147d859b" x="187.577819" y="163.363273" style="fill: #1f77b4"/>
     <use xlink:href="#m0d147d859b" x="190.129709" y="165.871975" style="fill: #1f77b4"/>
     <use xlink:href="#m0d147d859b" x="189.081369" y="130.553727" style="fill: #1f77b4"/>
     <use xlink:href="#m0d147d859b" x="189.117507" y="180.729794" style="fill: #1f77b4"/>
     <use xlink:href="#m0d147d859b" x="187.647307" y="174.938575" style="fill: #1f77b4"/>
     <use xlink:href="#m0d147d859b" x="189.679551" y="172.057066" style="fill: #1f77b4"/>
     <use xlink:href="#m0d147d859b" x="186.525337" y="191.647978" style="fill: #1f77b4"/>
     <use xlink:href="#m0d147d859b" x="186.505217" y="189.047913" style="fill: #1f77b4"/>
     <use xlink:href="#m0d147d859b" x="186.364691" y="192.102188" style="fill: #1f77b4"/>
     <use xlink:href="#m0d147d859b" x="190.174374" y="159.016565" style="fill: #1f77b4"/>
     <use xlink:href="#m0d147d859b" x="188.583222" y="181.395126" style="fill: #1f77b4"/>
     <use xlink:href="#m0d147d859b" x="189.286441" y="186.475826" style="fill: #1f77b4"/>
     <use xlink:href="#m0d147d859b" x="186.692654" y="181.14087" style="fill: #1f77b4"/>
    </g>
   </g>
   <g id="PathCollection_7">
    <g clip-path="url(#pbcff58034e)">
     <use xlink:href="#m0d147d859b" x="210.320673" y="218.608609" style="fill: #1f77b4"/>
     <use xlink:href="#m0d147d859b" x="213.226198" y="130.816654" style="fill: #1f77b4"/>
     <use xlink:href="#m0d147d859b" x="211.213544" y="158.913536" style="fill: #1f77b4"/>
     <use xlink:href="#m0d147d859b" x="213.531951" y="153.754685" style="fill: #1f77b4"/>
     <use xlink:href="#m0d147d859b" x="214.639144" y="113.240004" style="fill: #1f77b4"/>
    </g>
   </g>
   <g id="PathCollection_8">
    <g clip-path="url(#pbcff58034e)">
     <use xlink:href="#m0d147d859b" x="238.117225" y="295.488" style="fill: #1f77b4"/>
     <use xlink:href="#m0d147d859b" x="236.729468" y="228.82672" style="fill: #1f77b4"/>
     <use xlink:href="#m0d147d859b" x="235.526057" y="233.587603" style="fill: #1f77b4"/>
     <use xlink:href="#m0d147d859b" x="238.246677" y="231.788195" style="fill: #1f77b4"/>
     <use xlink:href="#m0d147d859b" x="237.528209" y="253.634194" style="fill: #1f77b4"/>
     <use xlink:href="#m0d147d859b" x="235.434579" y="250.851302" style="fill: #1f77b4"/>
     <use xlink:href="#m0d147d859b" x="235.178182" y="270.771314" style="fill: #1f77b4"/>
     <use xlink:href="#m0d147d859b" x="233.800823" y="242.267173" style="fill: #1f77b4"/>
     <use xlink:href="#m0d147d859b" x="236.111098" y="251.82953" style="fill: #1f77b4"/>
     <use xlink:href="#m0d147d859b" x="235.758962" y="259.0464" style="fill: #1f77b4"/>
     <use xlink:href="#m0d147d859b" x="233.993262" y="241.496098" style="fill: #1f77b4"/>
     <use xlink:href="#m0d147d859b" x="236.945161" y="254.795153" style="fill: #1f77b4"/>
     <use xlink:href="#m0d147d859b" x="236.507688" y="232.863712" style="fill: #1f77b4"/>
     <use xlink:href="#m0d147d859b" x="236.78106" y="221.832863" style="fill: #1f77b4"/>
    </g>
   </g>
   <g id="PathCollection_9">
    <g clip-path="url(#pbcff58034e)">
     <use xlink:href="#m0d147d859b" x="259.503693" y="217.83894" style="fill: #1f77b4"/>
     <use xlink:href="#m0d147d859b" x="258.491234" y="218.039374" style="fill: #1f77b4"/>
     <use xlink:href="#m0d147d859b" x="261.665568" y="191.747689" style="fill: #1f77b4"/>
     <use xlink:href="#m0d147d859b" x="260.011592" y="224.767177" style="fill: #1f77b4"/>
     <use xlink:href="#m0d147d859b" x="260.71667" y="206.13278" style="fill: #1f77b4"/>
     <use xlink:href="#m0d147d859b" x="257.900518" y="207.001151" style="fill: #1f77b4"/>
     <use xlink:href="#m0d147d859b" x="259.085696" y="213.330387" style="fill: #1f77b4"/>
     <use xlink:href="#m0d147d859b" x="258.867512" y="223.072257" style="fill: #1f77b4"/>
     <use xlink:href="#m0d147d859b" x="258.907404" y="208.949284" style="fill: #1f77b4"/>
     <use xlink:href="#m0d147d859b" x="258.88542" y="211.488183" style="fill: #1f77b4"/>
     <use xlink:href="#m0d147d859b" x="259.310309" y="227.265842" style="fill: #1f77b4"/>
     <use xlink:href="#m0d147d859b" x="260.62592" y="216.809579" style="fill: #1f77b4"/>
     <use xlink:href="#m0d147d859b" x="257.826367" y="208.668105" style="fill: #1f77b4"/>
     <use xlink:href="#m0d147d859b" x="258.114955" y="234.777527" style="fill: #1f77b4"/>
     <use xlink:href="#m0d147d859b" x="259.331573" y="210.326919" style="fill: #1f77b4"/>
     <use xlink:href="#m0d147d859b" x="261.753323" y="208.266999" style="fill: #1f77b4"/>
     <use xlink:href="#m0d147d859b" x="261.561191" y="228.41394" style="fill: #1f77b4"/>
     <use xlink:href="#m0d147d859b" x="260.106561" y="250.171541" style="fill: #1f77b4"/>
    </g>
   </g>
   <g id="PathCollection_10">
    <g clip-path="url(#pbcff58034e)">
     <use xlink:href="#m0d147d859b" x="285.337649" y="205.011321" style="fill: #1f77b4"/>
     <use xlink:href="#m0d147d859b" x="281.607929" y="206.413491" style="fill: #1f77b4"/>
     <use xlink:href="#m0d147d859b" x="285.638715" y="210.238908" style="fill: #1f77b4"/>
     <use xlink:href="#m0d147d859b" x="285.562556" y="167.775389" style="fill: #1f77b4"/>
     <use xlink:href="#m0d147d859b" x="282.874612" y="178.564545" style="fill: #1f77b4"/>
     <use xlink:href="#m0d147d859b" x="285.572994" y="221.586574" style="fill: #1f77b4"/>
     <use xlink:href="#m0d147d859b" x="282.287852" y="162.241387" style="fill: #1f77b4"/>
     <use xlink:href="#m0d147d859b" x="282.215926" y="163.032218" style="fill: #1f77b4"/>
     <use xlink:href="#m0d147d859b" x="285.025761" y="246.89916" style="fill: #1f77b4"/>
     <use xlink:href="#m0d147d859b" x="283.368102" y="240.907817" style="fill: #1f77b4"/>
    </g>
   </g>
   <g id="PathCollection_11">
    <g clip-path="url(#pbcff58034e)">
     <use xlink:href="#m0d147d859b" x="306.713679" y="138.412391" style="fill: #1f77b4"/>
     <use xlink:href="#m0d147d859b" x="308.9172" y="138.798125" style="fill: #1f77b4"/>
     <use xlink:href="#m0d147d859b" x="305.734157" y="98.132017" style="fill: #1f77b4"/>
     <use xlink:href="#m0d147d859b" x="307.75514" y="134.02827" style="fill: #1f77b4"/>
     <use xlink:href="#m0d147d859b" x="308.314021" y="115.428432" style="fill: #1f77b4"/>
     <use xlink:href="#m0d147d859b" x="305.997976" y="178.945471" style="fill: #1f77b4"/>
     <use xlink:href="#m0d147d859b" x="309.114887" y="127.18319" style="fill: #1f77b4"/>
     <use xlink:href="#m0d147d859b" x="305.440729" y="184.641533" style="fill: #1f77b4"/>
     <use xlink:href="#m0d147d859b" x="306.508383" y="116.836279" style="fill: #1f77b4"/>
     <use xlink:href="#m0d147d859b" x="307.429561" y="105.202874" style="fill: #1f77b4"/>
     <use xlink:href="#m0d147d859b" x="305.949406" y="108.07132" style="fill: #1f77b4"/>
    </g>
   </g>
   <g id="PathCollection_12">
    <g clip-path="url(#pbcff58034e)">
     <use xlink:href="#m0d147d859b" x="330.508968" y="110.315002" style="fill: #1f77b4"/>
     <use xlink:href="#m0d147d859b" x="332.620638" y="258.44896" style="fill: #1f77b4"/>
     <use xlink:href="#m0d147d859b" x="330.89376" y="187.437628" style="fill: #1f77b4"/>
     <use xlink:href="#m0d147d859b" x="329.230587" y="195.31273" style="fill: #1f77b4"/>
     <use xlink:href="#m0d147d859b" x="332.032734" y="141.762567" style="fill: #1f77b4"/>
     <use xlink:href="#m0d147d859b" x="331.303736" y="129.508903" style="fill: #1f77b4"/>
     <use xlink:href="#m0d147d859b" x="329.04683" y="212.223858" style="fill: #1f77b4"/>
     <use xlink:href="#m0d147d859b" x="331.933583" y="189.912544" style="fill: #1f77b4"/>
     <use xlink:href="#m0d147d859b" x="332.07105" y="120.081304" style="fill: #1f77b4"/>
     <use xlink:href="#m0d147d859b" x="330.129825" y="208.535923" style="fill: #1f77b4"/>
     <use xlink:href="#m0d147d859b" x="331.240843" y="194.62482" style="fill: #1f77b4"/>
     <use xlink:href="#m0d147d859b" x="333.470743" y="213.606638" style="fill: #1f77b4"/>
     <use xlink:href="#m0d147d859b" x="333.660228" y="164.078317" style="fill: #1f77b4"/>
     <use xlink:href="#m0d147d859b" x="331.347315" y="110.451438" style="fill: #1f77b4"/>
     <use xlink:href="#m0d147d859b" x="330.20463" y="125.441906" style="fill: #1f77b4"/>
     <use xlink:href="#m0d147d859b" x="333.425139" y="217.739805" style="fill: #1f77b4"/>
     <use xlink:href="#m0d147d859b" x="329.546912" y="163.799948" style="fill: #1f77b4"/>
     <use xlink:href="#m0d147d859b" x="329.534545" y="192.148648" style="fill: #1f77b4"/>
     <use xlink:href="#m0d147d859b" x="331.869897" y="152.292792" style="fill: #1f77b4"/>
     <use xlink:href="#m0d147d859b" x="330.57478" y="161.657035" style="fill: #1f77b4"/>
     <use xlink:href="#m0d147d859b" x="332.484917" y="208.609453" style="fill: #1f77b4"/>
     <use xlink:href="#m0d147d859b" x="330.078952" y="229.516202" style="fill: #1f77b4"/>
     <use xlink:href="#m0d147d859b" x="329.530165" y="155.022062" style="fill: #1f77b4"/>
     <use xlink:href="#m0d147d859b" x="331.452356" y="191.923495" style="fill: #1f77b4"/>
    </g>
   </g>
   <g id="PathCollection_13">
    <g clip-path="url(#pbcff58034e)">
     <use xlink:href="#m0d147d859b" x="354.349045" y="210.771874" style="fill: #1f77b4"/>
     <use xlink:href="#m0d147d859b" x="356.607324" y="205.584757" style="fill: #1f77b4"/>
     <use xlink:href="#m0d147d859b" x="355.024113" y="117.745074" style="fill: #1f77b4"/>
     <use xlink:href="#m0d147d859b" x="357.046099" y="192.084295" style="fill: #1f77b4"/>
    </g>
   </g>
   <g id="PathCollection_14">
    <g clip-path="url(#pbcff58034e)">
     <use xlink:href="#m0d147d859b" x="379.387978" y="180.738541" style="fill: #1f77b4"/>
     <use xlink:href="#m0d147d859b" x="380.789811" y="227.233309" style="fill: #1f77b4"/>
     <use xlink:href="#m0d147d859b" x="377.532524" y="206.4194" style="fill: #1f77b4"/>
     <use xlink:href="#m0d147d859b" x="378.192414" y="176.682526" style="fill: #1f77b4"/>
     <use xlink:href="#m0d147d859b" x="378.840965" y="188.187062" style="fill: #1f77b4"/>
     <use xlink:href="#m0d147d859b" x="378.474507" y="185.592963" style="fill: #1f77b4"/>
     <use xlink:href="#m0d147d859b" x="379.382251" y="208.761944" style="fill: #1f77b4"/>
     <use xlink:href="#m0d147d859b" x="379.31129" y="217.928851" style="fill: #1f77b4"/>
     <use xlink:href="#m0d147d859b" x="380.965396" y="218.28072" style="fill: #1f77b4"/>
     <use xlink:href="#m0d147d859b" x="377.035861" y="197.179577" style="fill: #1f77b4"/>
     <use xlink:href="#m0d147d859b" x="377.563835" y="190.116582" style="fill: #1f77b4"/>
     <use xlink:href="#m0d147d859b" x="376.825167" y="203.640063" style="fill: #1f77b4"/>
     <use xlink:href="#m0d147d859b" x="377.709133" y="177.936632" style="fill: #1f77b4"/>
     <use xlink:href="#m0d147d859b" x="380.993811" y="220.973448" style="fill: #1f77b4"/>
     <use xlink:href="#m0d147d859b" x="380.492359" y="181.694529" style="fill: #1f77b4"/>
     <use xlink:href="#m0d147d859b" x="380.799442" y="203.78136" style="fill: #1f77b4"/>
     <use xlink:href="#m0d147d859b" x="381.176291" y="162.906982" style="fill: #1f77b4"/>
     <use xlink:href="#m0d147d859b" x="379.128345" y="185.582247" style="fill: #1f77b4"/>
     <use xlink:href="#m0d147d859b" x="379.024815" y="196.292948" style="fill: #1f77b4"/>
     <use xlink:href="#m0d147d859b" x="378.899425" y="159.685404" style="fill: #1f77b4"/>
    </g>
   </g>
   <g id="PathCollection_15">
    <g clip-path="url(#pbcff58034e)">
     <use xlink:href="#m0d147d859b" x="404.584669" y="189.53033" style="fill: #1f77b4"/>
     <use xlink:href="#m0d147d859b" x="402.783408" y="123.716341" style="fill: #1f77b4"/>
     <use xlink:href="#m0d147d859b" x="404.324288" y="164.478592" style="fill: #1f77b4"/>
     <use xlink:href="#m0d147d859b" x="400.878348" y="205.808276" style="fill: #1f77b4"/>
    </g>
   </g>
  </g>
 </g>
 <defs>
  <clipPath id="pbcff58034e">
   <rect x="57.6" y="41.472" width="357.12" height="266.112"/>
  </clipPath>
 </defs>
</svg>
